HIERARCHY
ROOT Hips
{
	OFFSET -0.001795 -0.223333 0.028219
	CHANNELS 6 Xposition Yposition Zposition Zrotation Yrotation Xrotation 
	JOINT LeftUpLeg
	{
		OFFSET 0.069520 -0.091406 -0.006815
		CHANNELS 3 Zrotation Yrotation Xrotation
		JOINT LeftLeg
		{
			OFFSET 0.034277 -0.375199 -0.004496
			CHANNELS 3 Zrotation Yrotation Xrotation
			JOINT LeftFoot
			{
				OFFSET -0.013596 -0.397961 -0.043693
				CHANNELS 3 Zrotation Yrotation Xrotation
				JOINT LeftToe
				{
					OFFSET 0.026358 -0.055791 0.119288
					CHANNELS 3 Zrotation Yrotation Xrotation
					End Site
					{
						OFFSET 0.000000 0.000000 0.000000
					}
				}
			}
		}
	}
	JOINT RightUpLeg
	{
		OFFSET -0.067670 -0.090522 -0.004320
		CHANNELS 3 Zrotation Yrotation Xrotation
		JOINT RightLeg
		{
			OFFSET -0.038290 -0.382569 -0.008850
			CHANNELS 3 Zrotation Yrotation Xrotation
			JOINT RightFoot
			{
				OFFSET 0.015774 -0.398415 -0.042312
				CHANNELS 3 Zrotation Yrotation Xrotation
				JOINT RightToe
				{
					OFFSET -0.025372 -0.048144 0.123348
					CHANNELS 3 Zrotation Yrotation Xrotation
					End Site
					{
						OFFSET 0.000000 0.000000 0.000000
					}
				}
			}
		}
	}
	JOINT Spine
	{
		OFFSET -0.002533 0.108963 -0.026696
		CHANNELS 3 Zrotation Yrotation Xrotation
		JOINT Spine1
		{
			OFFSET 0.005487 0.135180 0.001092
			CHANNELS 3 Zrotation Yrotation Xrotation
			JOINT Spine2
			{
				OFFSET 0.001457 0.052922 0.025425
				CHANNELS 3 Zrotation Yrotation Xrotation
				JOINT Neck
				{
					OFFSET -0.002778 0.213870 -0.042857
					CHANNELS 3 Zrotation Yrotation Xrotation
					JOINT Head
					{
						OFFSET 0.005152 0.064970 0.051349
						CHANNELS 3 Zrotation Yrotation Xrotation
						End Site
						{
							OFFSET 0.000000 0.000000 0.000000
						}
					}
				}
				JOINT LeftShoulder
				{
					OFFSET 0.078845 0.121749 -0.034090
					CHANNELS 3 Zrotation Yrotation Xrotation
					JOINT LeftArm
					{
						OFFSET 0.090977 0.030469 -0.008868
						CHANNELS 3 Zrotation Yrotation Xrotation
						JOINT LeftForeArm
						{
							OFFSET 0.259612 -0.012772 -0.027456
							CHANNELS 3 Zrotation Yrotation Xrotation
							JOINT LeftHand
							{
								OFFSET 0.249234 0.008986 -0.001171
								CHANNELS 3 Zrotation Yrotation Xrotation
								End Site
								{
									OFFSET 0.000000 0.000000 0.000000
								}
							}
						}
					}
				}
				JOINT RightShoulder
				{
					OFFSET -0.081759 0.118833 -0.038615
					CHANNELS 3 Zrotation Yrotation Xrotation
					JOINT RightArm
					{
						OFFSET -0.096012 0.032551 -0.009143
						CHANNELS 3 Zrotation Yrotation Xrotation
						JOINT RightForeArm
						{
							OFFSET -0.253742 -0.013329 -0.021401
							CHANNELS 3 Zrotation Yrotation Xrotation
							JOINT RightHand
							{
								OFFSET -0.255298 0.007772 -0.005559
								CHANNELS 3 Zrotation Yrotation Xrotation
								End Site
								{
									OFFSET 0.000000 0.000000 0.000000
								}
							}
						}
					}
				}
			}
		}
	}
}
MOTION
Frames: 15
Frame Time: 0.050000
0.000000 0.938669 0.000000 0.821561 -1.583669 2.021893 0.639067 0.264283 3.124424 -0.932988 0.216927 -4.326958 3.377773 9.035890 7.574316 0.000000 0.000000 0.000000 -0.757069 0.273531 -2.704297 1.453423 -0.089412 2.110265 -1.414534 -5.456811 4.522148 0.000000 0.000000 0.000000 6.366947 0.047360 -1.433841 -0.962773 0.443185 1.555756 -2.960009 2.318084 5.132263 6.048546 -2.878542 -12.309576 0.000000 0.000000 0.000000 -19.146866 -10.423531 3.235437 -29.427305 -1.023433 -3.054734 -1.895758 -19.763684 1.000325 0.000000 0.000000 0.000000 15.473659 4.244660 1.159973 32.055176 1.276944 -2.914407 0.745893 23.971124 0.986265 0.000000 0.000000 0.000000 
-0.000107 0.937306 0.000140 0.613423 -1.310426 2.608319 0.823906 0.299001 3.648019 -0.794931 0.264699 -6.419919 3.188631 8.737572 7.658169 0.000000 0.000000 0.000000 -0.337797 0.312451 -3.130726 1.174044 -0.065737 1.806779 -1.602108 -5.751610 4.218720 0.000000 0.000000 0.000000 7.357669 0.102738 -2.116385 -1.543867 0.728562 1.371139 -3.582619 2.810604 5.769616 6.813130 -2.959299 -14.614919 0.000000 0.000000 0.000000 -17.766771 -10.595176 3.177233 -30.293063 -1.461033 -3.038340 -1.353872 -19.275797 0.867960 0.000000 0.000000 0.000000 14.588033 3.083451 0.775609 33.632191 0.765102 -3.267731 1.359479 23.362347 1.113998 0.000000 0.000000 0.000000 
-0.000239 0.936760 0.000188 0.554538 -0.765733 3.226878 1.206739 0.225122 3.037521 -1.241233 0.291782 -6.638942 2.960006 8.333335 7.520954 0.000000 0.000000 0.000000 -0.202825 0.411361 -4.133360 1.152485 -0.044058 2.495260 -1.911459 -6.356421 4.020866 0.000000 0.000000 0.000000 7.747883 0.117607 -2.422359 -1.032927 0.498576 -0.511509 -4.353384 3.196926 7.292859 6.904204 -2.879508 -15.223178 0.000000 0.000000 0.000000 -17.155858 -10.352331 2.925350 -31.202905 -0.801171 -3.317153 -3.080876 -19.600893 1.155114 0.000000 0.000000 0.000000 15.099857 3.260174 1.050896 32.990640 -0.591235 -3.667296 2.849130 25.323352 1.555723 0.000000 0.000000 0.000000 
-0.000522 0.936440 0.000388 0.568026 -0.331344 3.599198 1.246251 0.202188 2.819012 -1.216859 0.297884 -7.043187 2.755720 8.002713 7.535923 0.000000 0.000000 0.000000 -0.119105 0.459160 -4.604235 1.077722 -0.029736 2.707896 -2.129791 -6.801235 3.926702 0.000000 0.000000 0.000000 7.776730 0.202475 -3.308036 -1.049214 0.490243 0.578726 -4.293188 2.980603 6.811728 6.779668 -2.792079 -15.172767 0.000000 0.000000 0.000000 -17.761714 -10.489024 2.950143 -31.459290 -0.505393 -3.368270 -2.368517 -19.029805 1.005841 0.000000 0.000000 0.000000 14.548818 3.184687 1.007558 33.173806 -1.553551 -3.861823 2.990357 24.915240 1.553479 0.000000 0.000000 0.000000 
-0.000954 0.936467 0.000741 0.605731 -0.165265 3.796996 1.198034 0.205586 2.849794 -1.119771 0.303193 -7.481107 2.639602 7.851945 7.707850 0.000000 0.000000 0.000000 -0.119595 0.487106 -4.883886 1.080992 -0.025237 2.889684 -2.214337 -6.981557 3.911498 0.000000 0.000000 0.000000 7.807854 0.190442 -3.251665 -0.735001 0.348056 0.053307 -4.623215 3.366108 7.050682 7.203609 -3.207953 -14.014157 0.000000 0.000000 0.000000 -17.812541 -10.871564 3.012333 -31.868111 0.158726 -3.533789 -3.672370 -19.978195 1.265407 0.000000 0.000000 0.000000 14.426352 2.566687 0.809134 33.114818 -2.058006 -4.014977 4.190202 26.426937 1.952716 0.000000 0.000000 0.000000 
-0.001507 0.936295 0.001396 0.440299 0.046720 4.102953 1.033092 0.183983 2.518847 -0.393141 0.270117 -7.458428 2.620449 7.801875 7.592077 0.000000 0.000000 0.000000 -0.220321 0.500400 -5.022504 1.683916 -0.110738 2.633548 -2.257026 -7.107673 4.031126 0.000000 0.000000 0.000000 8.042401 0.228048 -3.665535 -0.709033 0.320854 0.782151 -4.489972 3.092731 6.738133 6.590880 -2.805353 -14.096845 0.000000 0.000000 0.000000 -18.158819 -10.593405 2.890279 -32.624723 0.245315 -3.634572 -3.362584 -20.433877 1.244639 0.000000 0.000000 0.000000 13.897254 2.880773 0.930215 33.838729 -2.587978 -4.183174 3.710008 26.676207 1.863773 0.000000 0.000000 0.000000 
-0.002393 0.936559 0.002355 0.644920 0.178618 4.141195 0.794329 0.196704 2.547590 -0.231006 0.264330 -7.505005 2.518695 7.677076 7.764837 0.000000 0.000000 0.000000 -0.345967 0.490736 -4.936638 1.632304 -0.107069 2.541299 -2.309919 -7.221504 4.032036 0.000000 0.000000 0.000000 7.969098 0.232103 -3.722028 -0.715125 0.327220 0.589359 -4.630260 3.119174 7.105248 6.879906 -3.037742 -13.806550 0.000000 0.000000 0.000000 -18.818962 -10.724632 2.916682 -32.818545 0.947017 -3.829663 -3.502990 -21.550207 1.336148 0.000000 0.000000 0.000000 14.398346 2.830295 0.932198 33.826091 -2.943084 -4.303026 4.060781 26.994037 1.973852 0.000000 0.000000 0.000000 
-0.003748 0.936669 0.003761 0.586360 0.066678 4.086779 0.740750 0.181641 2.335836 0.120938 0.226516 -6.831956 2.644370 7.849507 7.602199 0.000000 0.000000 0.000000 -0.120432 0.484220 -4.850032 1.490198 -0.085874 2.643181 -2.271371 -7.125369 3.986987 0.000000 0.000000 0.000000 8.069402 0.231524 -3.685540 -0.827053 0.382528 0.523907 -4.586848 3.385713 7.432382 7.028272 -3.079963 -14.077183 0.000000 0.000000 0.000000 -19.158336 -10.728571 2.866093 -33.453638 1.343566 -4.014832 -3.524629 -22.906924 1.418273 0.000000 0.000000 0.000000 15.181509 2.583243 0.849234 33.922149 -2.729474 -4.315443 3.135526 26.870438 1.772183 0.000000 0.000000 0.000000 
-0.005807 0.936593 0.005691 0.563953 0.138456 4.050389 0.875805 0.152281 2.056130 0.189725 0.194977 -6.045008 2.691086 7.874388 7.363198 0.000000 0.000000 0.000000 0.114386 0.460116 -4.587900 1.376059 -0.075769 2.489215 -2.300748 -7.160061 3.897334 0.000000 0.000000 0.000000 8.161701 0.242421 -3.767736 -0.835118 0.388561 0.403038 -4.579313 3.441129 7.792838 7.040308 -3.073620 -14.158952 0.000000 0.000000 0.000000 -19.531377 -10.685261 2.816008 -34.314312 1.278230 -4.124484 -3.263415 -24.011083 1.429335 0.000000 0.000000 0.000000 15.586128 2.559824 0.861322 34.292009 -2.626255 -4.372308 2.462584 26.925201 1.636551 0.000000 0.000000 0.000000 
-0.008613 0.936362 0.008319 0.564005 0.034611 3.705579 1.199711 0.163623 2.340095 -0.067432 0.192204 -5.533072 2.765927 7.954977 7.189731 0.000000 0.000000 0.000000 0.545739 0.396170 -3.946767 0.930260 -0.024166 2.328628 -2.282262 -7.044741 3.651488 0.000000 0.000000 0.000000 8.070986 0.242577 -3.685427 -0.668815 0.309620 0.396042 -4.616950 3.692076 8.003778 7.336567 -3.251728 -14.170711 0.000000 0.000000 0.000000 -19.917539 -10.674711 2.740916 -34.928355 1.639136 -4.295751 -3.185632 -25.384121 1.484902 0.000000 0.000000 0.000000 16.259704 2.370468 0.805843 34.271330 -2.109975 -4.285927 1.402944 26.477984 1.385626 0.000000 0.000000 0.000000 
-0.011866 0.935998 0.011624 0.536686 -0.360810 3.504718 1.286820 0.166773 2.395033 0.130974 0.153111 -4.750260 3.026416 8.342389 6.977895 0.000000 0.000000 0.000000 0.795364 0.336412 -3.391625 0.860781 -0.022457 2.074292 -2.138435 -6.639620 3.379297 0.000000 0.000000 0.000000 8.029545 0.252407 -3.697769 -0.789359 0.371152 0.251324 -4.472135 4.072807 8.205479 7.549421 -3.317493 -14.532841 0.000000 0.000000 0.000000 -20.269721 -10.670321 2.685856 -35.661494 2.028287 -4.497874 -2.667963 -26.560676 1.425875 0.000000 0.000000 0.000000 16.817070 2.526329 0.923812 35.111954 -1.493833 -4.271630 -0.203208 25.747187 1.018349 0.000000 0.000000 0.000000 
-0.015409 0.936092 0.015286 0.700644 -0.942195 2.995006 1.343150 0.178432 2.512386 -0.004461 0.115953 -3.397284 3.337059 8.839841 6.876536 0.000000 0.000000 0.000000 1.105601 0.251858 -2.635926 0.296317 0.048045 2.090218 -1.950214 -6.120119 3.077865 0.000000 0.000000 0.000000 7.864345 0.217088 -3.235573 -0.919497 0.437248 0.086649 -4.348944 4.512482 8.292675 7.925246 -3.356945 -15.631369 0.000000 0.000000 0.000000 -20.558604 -10.213900 2.390712 -36.356503 1.857877 -4.550054 -2.549682 -27.671114 1.449401 0.000000 0.000000 0.000000 17.687844 2.203883 0.773349 35.694588 -0.324957 -4.077923 -1.211946 25.367402 0.807486 0.000000 0.000000 0.000000 
-0.019307 0.935931 0.019129 0.796616 -1.253767 2.628069 1.599630 0.181789 2.641818 -0.260545 0.104248 -2.380331 3.504648 9.105540 6.792589 0.000000 0.000000 0.000000 1.395426 0.188678 -2.095443 -0.009699 0.093106 2.276902 -1.881885 -5.843532 2.734417 0.000000 0.000000 0.000000 7.759411 0.191771 -2.909056 -0.829718 0.396956 -0.045717 -4.468365 4.788451 8.457608 8.263379 -3.449410 -16.270955 0.000000 0.000000 0.000000 -20.803688 -9.928744 2.188201 -37.177024 1.696332 -4.626135 -2.440468 -28.350661 1.451227 0.000000 0.000000 0.000000 18.388561 2.105027 0.750660 36.921405 0.820246 -3.941074 -2.730050 25.441929 0.520880 0.000000 0.000000 0.000000 
-0.023787 0.935487 0.023122 0.858194 -2.083190 2.191992 2.045945 0.128067 2.065310 -0.868279 0.094007 0.170632 3.998028 9.889129 6.498655 0.000000 0.000000 0.000000 1.707620 0.117186 -1.520226 -0.328134 0.142410 2.494713 -1.638242 -5.105310 2.256536 0.000000 0.000000 0.000000 7.873600 0.136653 -2.247983 -1.076433 0.516637 -0.196151 -4.219716 5.034186 8.372550 8.259700 -3.272792 -17.381906 0.000000 0.000000 0.000000 -21.048266 -9.300640 1.894561 -38.557345 1.932984 -4.909729 -2.556778 -29.685247 1.560071 0.000000 0.000000 0.000000 18.861121 1.805429 0.518020 38.364555 2.112143 -3.706877 -3.971818 25.979445 0.286007 0.000000 0.000000 0.000000 
-0.029031 0.934576 0.027472 0.921704 -2.807262 1.707956 2.402671 0.083292 1.501597 -1.218451 0.080050 2.818980 4.449333 10.623767 6.243034 0.000000 0.000000 0.000000 1.920415 0.052698 -1.001875 -0.366333 0.170177 2.990720 -1.482205 -4.458288 1.579271 0.000000 0.000000 0.000000 7.885102 0.066380 -1.460358 -1.210360 0.582526 -0.549042 -4.105621 5.499051 8.481996 8.159572 -3.159083 -17.662049 0.000000 0.000000 0.000000 -21.416896 -8.993540 1.686173 -39.565744 1.762982 -5.009424 -2.461649 -30.454170 1.572041 0.000000 0.000000 0.000000 19.302494 1.386439 0.300468 40.675736 3.061536 -3.640724 -4.807379 26.901534 0.153187 0.000000 0.000000 0.000000 
